<?xml version="1.0" encoding="UTF-8"?>
<svg id="Capa_2" data-name="Capa 2" xmlns="http://www.w3.org/2000/svg" viewBox="0 0 355 355">
  <defs>
    <style>
      .cls-1 {
        fill: #fff;
      }
    </style>
  </defs>
  <g id="Capa_1-2" data-name="Capa 1">
    <circle class="cls-1" cx="177.5" cy="177.5" r="177.5"/>
    <g>
      <circle cx="183.01" cy="96.64" r="10.88"/>
      <circle cx="224.95" cy="118.41" r="10.88"/>
      <circle cx="270.13" cy="141.22" r="10.88"/>
      <path d="M263.59,163.05c-2.08-2.16-4.84-3.56-7.54-4.9-25.98-12.99-52.01-25.96-77.51-39.88-4.88-2.67-10.51-5.2-15.92-6.54-3.92-.97-8.14-1.1-11.9.35-7.39,2.86-13.48,10.7-19.44,15.89-5.35,4.65-10.7,9.3-16.05,13.95l-35.84,31.16c-6.09,5.29-12.18,10.59-18.26,15.88-6.29,5.47-6.96,15.08-1.49,21.37,9.78,11.25,20.96,1.89,29.11-5.36,21.64-19.28,43.76-38.05,65.64-57.07,3.98-3.46,10.07-3.04,13.53.94,3.46,3.98,3.04,10.07-.94,13.53l-34.9,30.34c-4.78,5.6-4.9,14.06.06,19.77,6.75,7.77,16.42,5.73,23.32-.29,14.46-12.61,28.88-25.26,43.31-37.9l.23.06,11.46-9.97c3.98-3.46,10.06-3.04,13.52.93,9.85,11.29-12.46,21.96-18,28.95-4.58,5.78-4.79,13.59.16,19.28,5.47,6.29,15.08,6.96,21.37,1.49l34.61-30.62c5.71-4.96,7.05-14.96,1.96-20.85-.15-.18-.31-.35-.47-.52Z"/>
    </g>
  </g>
</svg>